<svg width="10" height="15" viewBox="0 0 10 15" fill="none" xmlns="http://www.w3.org/2000/svg">
<path d="M9.62479 7.03741C9.79155 7.13369 9.79155 7.37439 9.62479 7.47067L5.12226 10.0702C4.9555 10.1665 4.74705 10.0461 4.74705 9.85358V4.65451C4.74705 4.46195 4.9555 4.3416 5.12226 4.43788L9.62479 7.03741Z" fill="#30B5FF"/>
<path d="M0 0.50028C0 0.223983 0.223983 -1.22893e-07 0.500281 -2.74489e-07L9.49972 -5.21222e-06C9.77602 -5.36382e-06 10 0.223978 10 0.500276V2.50135C10 2.77765 9.77602 3.00163 9.49972 3.00163H3.74649C3.47019 3.00163 3.24621 3.22561 3.24621 3.50191V5.98979V9.32667V14.0079C3.24621 14.2842 3.02222 14.5081 2.74593 14.5081H0.500281C0.223983 14.5081 0 14.2842 0 14.0079V0.50028Z" fill="#232323"/>
</svg>
