<svg width="102" height="20" viewBox="0 0 102 20" fill="none" xmlns="http://www.w3.org/2000/svg">
<path d="M13.208 9.17354C13.4223 9.29726 13.4223 9.60655 13.208 9.73027L7.42233 13.0707C7.20804 13.1944 6.94019 13.0397 6.94019 12.7923L6.94019 6.11152C6.94019 5.86408 7.20804 5.70944 7.42233 5.83316L13.208 9.17354Z" fill="#30B5FF"/>
<path d="M69.2179 5.5629C68.4701 6.99368 68.097 8.56963 68.097 10.288C68.097 12.0065 68.4701 13.5903 69.2178 15.0369L69.2187 15.0387C69.9833 16.4702 71.0579 17.61 72.4408 18.456C73.8267 19.3038 75.4221 19.7259 77.2221 19.726C78.5521 19.7421 79.7421 19.515 80.7889 19.0406C81.6912 18.6318 82.531 18.0589 83.3082 17.3237C83.5736 17.0726 83.5616 16.6574 83.3061 16.4093L81.5847 14.7375C81.2962 14.4573 80.8424 14.5113 80.5859 14.7888C80.2575 15.1442 79.8639 15.4568 79.4038 15.7262C78.7906 16.0787 78.0576 16.258 77.199 16.258C76.1712 16.258 75.2738 15.986 74.5011 15.4451C73.7236 14.9009 73.1162 14.1777 72.6788 13.2721C72.2566 12.3491 72.045 11.355 72.045 10.288C72.045 9.23681 72.2567 8.25854 72.679 7.35131L72.6794 7.35042C73.1011 6.42911 73.7003 5.6986 74.4771 5.1549L74.4787 5.15373C75.2517 4.59716 76.1407 4.318 77.151 4.318C77.9425 4.318 78.6947 4.50396 79.4097 4.87699C79.9278 5.14733 80.3663 5.48167 80.7269 5.87944C80.9945 6.17465 81.4836 6.22477 81.7703 5.90842L83.3564 4.15887C83.5846 3.90714 83.5844 3.51359 83.3289 3.27448C82.5618 2.55666 81.6901 1.99246 80.7144 1.58222C79.6069 1.09386 78.4267 0.85 77.175 0.85C75.3904 0.85 73.8027 1.27216 72.4168 2.12004C71.0333 2.96638 69.9664 4.1148 69.2179 5.5629ZM69.2179 5.5629C69.218 5.56277 69.218 5.56264 69.2181 5.56251L69.351 5.632L69.2178 5.56313C69.2178 5.56305 69.2179 5.56298 69.2179 5.5629ZM45.4165 15.5099L45.4146 15.512C45.0205 15.9212 44.6015 16.114 44.1546 16.114H39.9026C39.7093 16.114 39.5526 15.9573 39.5526 15.764V12.132C39.5526 11.9387 39.7093 11.782 39.9026 11.782H44.1546C44.6682 11.782 45.0995 11.9848 45.4567 12.4016L45.4567 12.4016L45.4587 12.4039C45.8295 12.8192 46.0206 13.3651 46.0206 14.056C46.0206 14.624 45.8206 15.1059 45.4165 15.5099ZM44.5135 5.02452L44.5152 5.02676C44.7945 5.39426 44.9406 5.87971 44.9406 6.496C44.9406 6.95094 44.7731 7.37251 44.4262 7.76461C44.0816 8.15427 43.6953 8.34695 43.264 8.362H39.9026C39.7093 8.362 39.5526 8.2053 39.5526 8.012V4.812C39.5526 4.6187 39.7093 4.462 39.9026 4.462H43.1946C43.8172 4.462 44.2453 4.65752 44.5135 5.02452ZM13.628 4.462C13.987 4.462 14.278 4.17099 14.278 3.812V1.692C14.278 1.33302 13.987 1.042 13.628 1.042H1.5C1.14102 1.042 0.85 1.33301 0.85 1.692V18.884C0.85 19.243 1.14101 19.534 1.5 19.534H4.148C4.50699 19.534 4.798 19.243 4.798 18.884V11.824V8.704V4.812C4.798 4.6187 4.9547 4.462 5.148 4.462H13.628ZM19.1026 1.692C19.1026 1.33302 18.8115 1.042 18.4526 1.042H15.8046C15.4456 1.042 15.1546 1.33301 15.1546 1.692V18.884C15.1546 19.243 15.4456 19.534 15.8046 19.534H18.4526C18.8115 19.534 19.1026 19.243 19.1026 18.884V1.692ZM33.8476 4.462C34.2066 4.462 34.4976 4.17099 34.4976 3.812V1.692C34.4976 1.33302 34.2066 1.042 33.8476 1.042H21.1196C20.7606 1.042 20.4696 1.33301 20.4696 1.692V3.812C20.4696 4.17099 20.7606 4.462 21.1196 4.462H25.2076C25.4009 4.462 25.5576 4.6187 25.5576 4.812V18.884C25.5576 19.243 25.8486 19.534 26.2076 19.534H28.8556C29.2146 19.534 29.5056 19.243 29.5056 18.884V4.812C29.5056 4.6187 29.6623 4.462 29.8556 4.462H33.8476ZM36.2546 1.042C35.8956 1.042 35.6046 1.33301 35.6046 1.692V18.884C35.6046 19.243 35.8956 19.534 36.2546 19.534H44.8266C45.7531 19.534 46.614 19.2687 47.4058 18.7408C48.1941 18.2153 48.8186 17.5332 49.2781 16.6962C49.7377 15.859 49.9686 14.9782 49.9686 14.056C49.9686 13.1983 49.754 12.382 49.3268 11.609C48.9159 10.8209 48.3557 10.1939 47.6462 9.73146C47.5308 9.65084 47.5099 9.47505 47.615 9.3577C48.4465 8.42925 48.8646 7.35334 48.8646 6.136C48.8646 5.2739 48.6156 4.45469 48.122 3.68086C47.6458 2.89308 47.0129 2.26035 46.2251 1.78415C45.4352 1.29074 44.6003 1.042 43.7226 1.042H36.2546ZM68.671 19.534C69.1327 19.534 69.4472 19.0662 69.2729 18.6386L62.2646 1.44663C62.1648 1.20195 61.9269 1.042 61.6627 1.042H58.036C57.7737 1.042 57.537 1.19973 57.4361 1.44189L50.269 18.6339C50.0905 19.062 50.4051 19.534 50.8689 19.534H53.7452C54.0078 19.534 54.2445 19.376 54.3454 19.1336L55.9852 15.1896C56.0395 15.0591 56.167 14.974 56.3084 14.974H63.2716C63.4135 14.974 63.5414 15.0598 63.5953 15.1911L65.2127 19.1308C65.3128 19.3747 65.5504 19.534 65.814 19.534H68.671ZM61.9162 11.0723C62.0097 11.3024 61.8404 11.554 61.592 11.554H58.0217C57.7718 11.554 57.6024 11.2996 57.6988 11.069L59.5093 6.7373C59.6298 6.44904 60.0389 6.45109 60.1565 6.74054L61.9162 11.0723ZM94.7054 9.30472C94.6114 9.17089 94.6226 8.98981 94.7324 8.8686L100.859 2.10436C101.238 1.68655 100.941 1.018 100.378 1.018H96.807C96.6233 1.018 96.4481 1.09575 96.3249 1.23201L89.4006 8.88846C89.1857 9.12607 88.791 8.97405 88.791 8.6537V1.716C88.791 1.35702 88.5 1.066 88.141 1.066H85.493C85.134 1.066 84.843 1.35702 84.843 1.716V18.884C84.843 19.243 85.134 19.534 85.493 19.534H88.141C88.5 19.534 88.791 19.243 88.791 18.884V15.6849C88.791 15.5997 88.8221 15.5174 88.8785 15.4535L91.5495 12.4237C91.6993 12.2537 91.9687 12.2688 92.0987 12.4543L96.8649 19.257C96.9865 19.4306 97.1852 19.534 97.3972 19.534H100.639C101.165 19.534 101.473 18.9411 101.171 18.5104L94.7054 9.30472Z" fill="#232323" stroke="#232323" stroke-width="0.3"/>
</svg>
