<svg width="79" height="16" viewBox="0 0 79 16" fill="none" xmlns="http://www.w3.org/2000/svg">
<mask id="path-1-outside-1_471_129" maskUnits="userSpaceOnUse" x="0" y="0" width="79" height="16" fill="black">
<rect fill="white" width="79" height="16"/>
<path fill-rule="evenodd" clip-rule="evenodd" d="M10.71 3.45021C10.9223 3.45021 11.0944 3.27808 11.0944 3.06575V1.38446C11.0944 1.17213 10.9223 1 10.71 1H1.38446C1.17213 1 1 1.17213 1 1.38446V14.9022C1 15.1145 1.17213 15.2866 1.38446 15.2866H3.42057C3.63291 15.2866 3.80504 15.1145 3.80504 14.9021V9.73403C3.80504 9.52169 3.97716 9.34956 4.1895 9.34956H10.71C10.9223 9.34956 11.0944 9.17743 11.0944 8.9651V7.28382C11.0944 7.07148 10.9223 6.89935 10.71 6.89935H4.1895C3.97716 6.89935 3.80504 6.72722 3.80504 6.51489V3.83467C3.80504 3.62234 3.97716 3.45021 4.1895 3.45021H10.71ZM59.6099 15.2835C58.2443 15.2835 57.0386 14.9637 55.9928 14.3239C54.9471 13.6842 54.1351 12.823 53.5569 11.7403C52.991 10.6454 52.708 9.44586 52.708 8.14177C52.708 6.83767 52.991 5.6443 53.5569 4.56166C54.1228 3.46671 54.9286 2.59936 55.9744 1.95962C57.0201 1.31987 58.2196 1 59.5729 1C60.5203 1 61.4122 1.18454 62.2488 1.55362C62.9869 1.86385 63.646 2.29035 64.226 2.83312C64.3736 2.97129 64.3763 3.20165 64.2405 3.35146L63.0209 4.69674C62.8534 4.88153 62.557 4.85926 62.3895 4.67446C62.1024 4.35772 61.7541 4.09252 61.3445 3.87885C60.7786 3.58359 60.1819 3.43595 59.5545 3.43595C58.7548 3.43595 58.0474 3.6574 57.4323 4.1003C56.8171 4.5309 56.3435 5.10913 56.0113 5.835C55.6791 6.54856 55.513 7.31748 55.513 8.14177C55.513 8.97836 55.6791 9.75958 56.0113 10.4854C56.3558 11.199 56.8356 11.7711 57.4507 12.2017C58.0659 12.6323 58.7794 12.8476 59.5914 12.8476C60.2681 12.8476 60.8524 12.7061 61.3445 12.4231C61.7074 12.2107 62.0193 11.9633 62.2803 11.6809C62.44 11.508 62.7145 11.4819 62.8833 11.6459L64.2069 12.9313C64.3589 13.0789 64.3635 13.3223 64.2096 13.4679C63.6205 14.0252 62.9854 14.4582 62.3042 14.7668C61.5168 15.1236 60.6187 15.2958 59.6099 15.2835ZM14.8043 1.5321C14.8043 1.31976 14.6321 1.14763 14.4198 1.14763H12.3837C12.1714 1.14763 11.9992 1.31976 11.9992 1.5321V14.7514C11.9992 14.9638 12.1714 15.1359 12.3837 15.1359H14.4198C14.6321 15.1359 14.8043 14.9638 14.8043 14.7514V1.5321ZM26.2574 3.54668C26.4698 3.54668 26.6419 3.37455 26.6419 3.16221V1.5321C26.6419 1.31976 26.4698 1.14763 26.2574 1.14763H16.4706C16.2582 1.14763 16.0861 1.31976 16.0861 1.5321V3.16222C16.0861 3.37455 16.2582 3.54668 16.4706 3.54668H19.6139C19.8263 3.54668 19.9984 3.71881 19.9984 3.93114V14.7514C19.9984 14.9638 20.1705 15.1359 20.3829 15.1359H22.419C22.6313 15.1359 22.8034 14.9638 22.8034 14.7514V3.93114C22.8034 3.71881 22.9756 3.54668 23.1879 3.54668H26.2574ZM27.7238 1.5321C27.7238 1.31976 27.8959 1.14763 28.1082 1.14763H33.8506C34.5026 1.14763 35.1239 1.33218 35.7144 1.70126C36.305 2.05804 36.7786 2.5317 37.1354 3.12223C37.5045 3.70046 37.689 4.30945 37.689 4.94919C37.689 5.85602 37.3785 6.65612 36.7576 7.34949C36.6344 7.48707 36.651 7.70496 36.8032 7.80959C37.3322 8.15407 37.7505 8.62158 38.0581 9.21211C38.378 9.79034 38.5379 10.3993 38.5379 11.0391C38.5379 11.728 38.3657 12.3862 38.0212 13.0137C37.6767 13.6411 37.2092 14.1517 36.6187 14.5454C36.0282 14.9391 35.3884 15.1359 34.6995 15.1359H28.1082C27.8959 15.1359 27.7238 14.9638 27.7238 14.7514V1.5321ZM34.1827 12.7369C34.5641 12.7369 34.9148 12.5708 35.2346 12.2386C35.5668 11.9064 35.7329 11.5066 35.7329 11.0391C35.7329 10.4854 35.5791 10.0364 35.2715 9.69192C34.9763 9.34744 34.6133 9.1752 34.1827 9.1752H30.9133C30.7009 9.1752 30.5288 9.34733 30.5288 9.55967V12.3524C30.5288 12.5647 30.7009 12.7369 30.9133 12.7369H34.1827ZM33.4999 6.77616C33.869 6.76386 34.195 6.59777 34.478 6.2779C34.761 5.95802 34.9024 5.60739 34.9024 5.22601C34.9024 4.7339 34.7856 4.33406 34.5518 4.02649C34.3181 3.70661 33.949 3.54668 33.4446 3.54668H30.9133C30.7009 3.54668 30.5288 3.71881 30.5288 3.93114V6.3917C30.5288 6.60403 30.7009 6.77616 30.9133 6.77616H33.4999ZM53.034 15.1359C53.3071 15.1359 53.4931 14.8592 53.39 14.6063L48.0011 1.38696C47.9421 1.24224 47.8014 1.14763 47.6451 1.14763H44.8565C44.7013 1.14763 44.5614 1.24093 44.5017 1.38416L38.9907 14.6035C38.8851 14.8568 39.0712 15.1359 39.3456 15.1359H41.5572C41.7125 15.1359 41.8525 15.0425 41.9122 14.899L43.1731 11.8665C43.2327 11.7231 43.3728 11.6296 43.5281 11.6296H48.8822C49.0382 11.6296 49.1787 11.7238 49.2379 11.8681L50.4815 14.8974C50.5407 15.0417 50.6812 15.1359 50.8372 15.1359H53.034ZM47.9469 8.7014C48.0497 8.95421 47.8636 9.23057 47.5908 9.23057H44.8455C44.5709 9.23057 44.3849 8.95113 44.4908 8.69784L45.8829 5.36707C46.0153 5.05043 46.4647 5.05268 46.5938 5.37063L47.9469 8.7014ZM72.9581 7.45199C72.8548 7.30498 72.8672 7.10607 72.9878 6.97293L77.6989 1.77174C77.9227 1.52461 77.7473 1.12918 77.4139 1.12918H74.6684C74.5598 1.12918 74.4562 1.17517 74.3833 1.25576L69.059 7.14299C68.823 7.40399 68.3894 7.23701 68.3894 6.88511V1.55055C68.3894 1.33822 68.2173 1.16609 68.005 1.16609H65.9689C65.7565 1.16609 65.5844 1.33822 65.5844 1.55055V14.7514C65.5844 14.9638 65.7565 15.1359 65.9689 15.1359H68.005C68.2173 15.1359 68.3894 14.9638 68.3894 14.7514V12.2916C68.3894 12.198 68.4236 12.1076 68.4855 12.0374L70.5393 9.70767C70.7039 9.52099 70.9998 9.53749 71.1426 9.74131L74.8074 14.972C74.8794 15.0747 74.9969 15.1359 75.1223 15.1359H77.6149C77.9262 15.1359 78.1084 14.7852 77.9295 14.5305L72.9581 7.45199Z"/>
</mask>
<path fill-rule="evenodd" clip-rule="evenodd" d="M10.71 3.45021C10.9223 3.45021 11.0944 3.27808 11.0944 3.06575V1.38446C11.0944 1.17213 10.9223 1 10.71 1H1.38446C1.17213 1 1 1.17213 1 1.38446V14.9022C1 15.1145 1.17213 15.2866 1.38446 15.2866H3.42057C3.63291 15.2866 3.80504 15.1145 3.80504 14.9021V9.73403C3.80504 9.52169 3.97716 9.34956 4.1895 9.34956H10.71C10.9223 9.34956 11.0944 9.17743 11.0944 8.9651V7.28382C11.0944 7.07148 10.9223 6.89935 10.71 6.89935H4.1895C3.97716 6.89935 3.80504 6.72722 3.80504 6.51489V3.83467C3.80504 3.62234 3.97716 3.45021 4.1895 3.45021H10.71ZM59.6099 15.2835C58.2443 15.2835 57.0386 14.9637 55.9928 14.3239C54.9471 13.6842 54.1351 12.823 53.5569 11.7403C52.991 10.6454 52.708 9.44586 52.708 8.14177C52.708 6.83767 52.991 5.6443 53.5569 4.56166C54.1228 3.46671 54.9286 2.59936 55.9744 1.95962C57.0201 1.31987 58.2196 1 59.5729 1C60.5203 1 61.4122 1.18454 62.2488 1.55362C62.9869 1.86385 63.646 2.29035 64.226 2.83312C64.3736 2.97129 64.3763 3.20165 64.2405 3.35146L63.0209 4.69674C62.8534 4.88153 62.557 4.85926 62.3895 4.67446C62.1024 4.35772 61.7541 4.09252 61.3445 3.87885C60.7786 3.58359 60.1819 3.43595 59.5545 3.43595C58.7548 3.43595 58.0474 3.6574 57.4323 4.1003C56.8171 4.5309 56.3435 5.10913 56.0113 5.835C55.6791 6.54856 55.513 7.31748 55.513 8.14177C55.513 8.97836 55.6791 9.75958 56.0113 10.4854C56.3558 11.199 56.8356 11.7711 57.4507 12.2017C58.0659 12.6323 58.7794 12.8476 59.5914 12.8476C60.2681 12.8476 60.8524 12.7061 61.3445 12.4231C61.7074 12.2107 62.0193 11.9633 62.2803 11.6809C62.44 11.508 62.7145 11.4819 62.8833 11.6459L64.2069 12.9313C64.3589 13.0789 64.3635 13.3223 64.2096 13.4679C63.6205 14.0252 62.9854 14.4582 62.3042 14.7668C61.5168 15.1236 60.6187 15.2958 59.6099 15.2835ZM14.8043 1.5321C14.8043 1.31976 14.6321 1.14763 14.4198 1.14763H12.3837C12.1714 1.14763 11.9992 1.31976 11.9992 1.5321V14.7514C11.9992 14.9638 12.1714 15.1359 12.3837 15.1359H14.4198C14.6321 15.1359 14.8043 14.9638 14.8043 14.7514V1.5321ZM26.2574 3.54668C26.4698 3.54668 26.6419 3.37455 26.6419 3.16221V1.5321C26.6419 1.31976 26.4698 1.14763 26.2574 1.14763H16.4706C16.2582 1.14763 16.0861 1.31976 16.0861 1.5321V3.16222C16.0861 3.37455 16.2582 3.54668 16.4706 3.54668H19.6139C19.8263 3.54668 19.9984 3.71881 19.9984 3.93114V14.7514C19.9984 14.9638 20.1705 15.1359 20.3829 15.1359H22.419C22.6313 15.1359 22.8034 14.9638 22.8034 14.7514V3.93114C22.8034 3.71881 22.9756 3.54668 23.1879 3.54668H26.2574ZM27.7238 1.5321C27.7238 1.31976 27.8959 1.14763 28.1082 1.14763H33.8506C34.5026 1.14763 35.1239 1.33218 35.7144 1.70126C36.305 2.05804 36.7786 2.5317 37.1354 3.12223C37.5045 3.70046 37.689 4.30945 37.689 4.94919C37.689 5.85602 37.3785 6.65612 36.7576 7.34949C36.6344 7.48707 36.651 7.70496 36.8032 7.80959C37.3322 8.15407 37.7505 8.62158 38.0581 9.21211C38.378 9.79034 38.5379 10.3993 38.5379 11.0391C38.5379 11.728 38.3657 12.3862 38.0212 13.0137C37.6767 13.6411 37.2092 14.1517 36.6187 14.5454C36.0282 14.9391 35.3884 15.1359 34.6995 15.1359H28.1082C27.8959 15.1359 27.7238 14.9638 27.7238 14.7514V1.5321ZM34.1827 12.7369C34.5641 12.7369 34.9148 12.5708 35.2346 12.2386C35.5668 11.9064 35.7329 11.5066 35.7329 11.0391C35.7329 10.4854 35.5791 10.0364 35.2715 9.69192C34.9763 9.34744 34.6133 9.1752 34.1827 9.1752H30.9133C30.7009 9.1752 30.5288 9.34733 30.5288 9.55967V12.3524C30.5288 12.5647 30.7009 12.7369 30.9133 12.7369H34.1827ZM33.4999 6.77616C33.869 6.76386 34.195 6.59777 34.478 6.2779C34.761 5.95802 34.9024 5.60739 34.9024 5.22601C34.9024 4.7339 34.7856 4.33406 34.5518 4.02649C34.3181 3.70661 33.949 3.54668 33.4446 3.54668H30.9133C30.7009 3.54668 30.5288 3.71881 30.5288 3.93114V6.3917C30.5288 6.60403 30.7009 6.77616 30.9133 6.77616H33.4999ZM53.034 15.1359C53.3071 15.1359 53.4931 14.8592 53.39 14.6063L48.0011 1.38696C47.9421 1.24224 47.8014 1.14763 47.6451 1.14763H44.8565C44.7013 1.14763 44.5614 1.24093 44.5017 1.38416L38.9907 14.6035C38.8851 14.8568 39.0712 15.1359 39.3456 15.1359H41.5572C41.7125 15.1359 41.8525 15.0425 41.9122 14.899L43.1731 11.8665C43.2327 11.7231 43.3728 11.6296 43.5281 11.6296H48.8822C49.0382 11.6296 49.1787 11.7238 49.2379 11.8681L50.4815 14.8974C50.5407 15.0417 50.6812 15.1359 50.8372 15.1359H53.034ZM47.9469 8.7014C48.0497 8.95421 47.8636 9.23057 47.5908 9.23057H44.8455C44.5709 9.23057 44.3849 8.95113 44.4908 8.69784L45.8829 5.36707C46.0153 5.05043 46.4647 5.05268 46.5938 5.37063L47.9469 8.7014ZM72.9581 7.45199C72.8548 7.30498 72.8672 7.10607 72.9878 6.97293L77.6989 1.77174C77.9227 1.52461 77.7473 1.12918 77.4139 1.12918H74.6684C74.5598 1.12918 74.4562 1.17517 74.3833 1.25576L69.059 7.14299C68.823 7.40399 68.3894 7.23701 68.3894 6.88511V1.55055C68.3894 1.33822 68.2173 1.16609 68.005 1.16609H65.9689C65.7565 1.16609 65.5844 1.33822 65.5844 1.55055V14.7514C65.5844 14.9638 65.7565 15.1359 65.9689 15.1359H68.005C68.2173 15.1359 68.3894 14.9638 68.3894 14.7514V12.2916C68.3894 12.198 68.4236 12.1076 68.4855 12.0374L70.5393 9.70767C70.7039 9.52099 70.9998 9.53749 71.1426 9.74131L74.8074 14.972C74.8794 15.0747 74.9969 15.1359 75.1223 15.1359H77.6149C77.9262 15.1359 78.1084 14.7852 77.9295 14.5305L72.9581 7.45199Z" fill="#232323"/>
<path d="M59.6099 15.2835L59.6117 15.1298H59.6099V15.2835ZM53.5569 11.7403L53.4203 11.811L53.4212 11.8128L53.5569 11.7403ZM53.5569 4.56166L53.6932 4.6329L53.6935 4.63227L53.5569 4.56166ZM55.9744 1.95962L55.8941 1.82843L55.9744 1.95962ZM62.2488 1.55362L62.1867 1.69435L62.1892 1.6954L62.2488 1.55362ZM64.226 2.83312L64.3311 2.72083V2.72083L64.226 2.83312ZM64.2405 3.35146L64.3544 3.45475V3.45475L64.2405 3.35146ZM63.0209 4.69674L62.907 4.59345V4.59345L63.0209 4.69674ZM62.3895 4.67446L62.2756 4.77774L62.2756 4.77774L62.3895 4.67446ZM61.3445 3.87885L61.2734 4.0152L61.3445 3.87885ZM57.4323 4.1003L57.5205 4.2263L57.5221 4.2251L57.4323 4.1003ZM56.0113 5.835L56.1507 5.8999L56.1511 5.89899L56.0113 5.835ZM56.0113 10.4854L55.8714 10.5495L55.8728 10.5523L56.0113 10.4854ZM57.4507 12.2017L57.5389 12.0757L57.4507 12.2017ZM61.3445 12.4231L61.4212 12.5565L61.4222 12.5559L61.3445 12.4231ZM62.2803 11.6809L62.1674 11.5765L62.2803 11.6809ZM62.8833 11.6459L62.9905 11.5356V11.5356L62.8833 11.6459ZM64.2069 12.9313L64.0998 13.0416V13.0416L64.2069 12.9313ZM64.2096 13.4679L64.1039 13.3562V13.3562L64.2096 13.4679ZM62.3042 14.7668L62.3676 14.9069L62.3042 14.7668ZM35.7144 1.70126L35.6329 1.83168L35.6349 1.83289L35.7144 1.70126ZM37.1354 3.12223L37.0037 3.20178L37.0058 3.20497L37.1354 3.12223ZM36.7576 7.34949L36.8721 7.45209V7.45209L36.7576 7.34949ZM36.8032 7.80959L36.7161 7.93636L36.7193 7.93846L36.8032 7.80959ZM38.0581 9.21211L37.9217 9.28317L37.9235 9.28655L38.0581 9.21211ZM38.0212 13.0137L38.156 13.0877L38.0212 13.0137ZM36.6187 14.5454L36.5334 14.4174L36.6187 14.5454ZM35.2346 12.2386L35.1259 12.1298L35.1239 12.1319L35.2346 12.2386ZM35.2715 9.69192L35.1547 9.79202L35.1568 9.79434L35.2715 9.69192ZM34.478 6.2779L34.5932 6.37979V6.37979L34.478 6.2779ZM33.4999 6.77616V6.93003L33.5051 6.92986L33.4999 6.77616ZM34.5518 4.02649L34.4276 4.11724L34.4294 4.11954L34.5518 4.02649ZM53.39 14.6063L53.5324 14.5483V14.5483L53.39 14.6063ZM48.0011 1.38696L47.8587 1.44502V1.44502L48.0011 1.38696ZM44.5017 1.38416L44.6436 1.44333V1.44333L44.5017 1.38416ZM38.9907 14.6035L38.8487 14.5443L38.9907 14.6035ZM41.9122 14.899L41.7702 14.84V14.84L41.9122 14.899ZM43.1731 11.8665L43.0311 11.8074V11.8074L43.1731 11.8665ZM49.2379 11.8681L49.3802 11.8097L49.3801 11.8097L49.2379 11.8681ZM50.4815 14.8974L50.3393 14.9559L50.3393 14.9559L50.4815 14.8974ZM47.9469 8.7014L48.0894 8.64352V8.64352L47.9469 8.7014ZM44.4908 8.69784L44.6326 8.75715L44.6326 8.75714L44.4908 8.69784ZM45.8829 5.36707L46.0248 5.42638L45.8829 5.36707ZM46.5938 5.37063L46.4513 5.42851V5.42852L46.5938 5.37063ZM72.9878 6.97293L72.8738 6.86969V6.86969L72.9878 6.97293ZM72.9581 7.45199L73.0839 7.36361V7.3636L72.9581 7.45199ZM77.6989 1.77174L77.5849 1.6685L77.5849 1.6685L77.6989 1.77174ZM74.3833 1.25576L74.4974 1.35891V1.35891L74.3833 1.25576ZM69.059 7.14299L69.1731 7.24615L69.059 7.14299ZM68.4855 12.0374L68.6009 12.1391V12.1391L68.4855 12.0374ZM70.5393 9.70767L70.4239 9.60598V9.60598L70.5393 9.70767ZM71.1426 9.74131L71.0166 9.82955V9.82955L71.1426 9.74131ZM74.8074 14.972L74.9334 14.8838V14.8838L74.8074 14.972ZM77.9295 14.5305L77.8036 14.6189L77.9295 14.5305ZM10.9407 3.06575C10.9407 3.19315 10.8374 3.29643 10.71 3.29643V3.604C11.0072 3.604 11.2482 3.36301 11.2482 3.06575H10.9407ZM10.9407 1.38446V3.06575H11.2482V1.38446H10.9407ZM10.71 1.15378C10.8374 1.15378 10.9407 1.25706 10.9407 1.38446H11.2482C11.2482 1.0872 11.0072 0.846215 10.71 0.846215V1.15378ZM1.38446 1.15378H10.71V0.846215H1.38446V1.15378ZM1.15378 1.38446C1.15378 1.25706 1.25706 1.15378 1.38446 1.15378V0.846215C1.0872 0.846215 0.846215 1.0872 0.846215 1.38446H1.15378ZM1.15378 14.9022V1.38446H0.846215V14.9022H1.15378ZM1.38446 15.1328C1.25706 15.1328 1.15378 15.0296 1.15378 14.9022H0.846215C0.846215 15.1994 1.0872 15.4404 1.38446 15.4404V15.1328ZM3.42057 15.1328H1.38446V15.4404H3.42057V15.1328ZM3.65125 14.9021C3.65125 15.0295 3.54797 15.1328 3.42057 15.1328V15.4404C3.71784 15.4404 3.95882 15.1994 3.95882 14.9021H3.65125ZM3.65125 9.73403V14.9021H3.95882V9.73403H3.65125ZM4.1895 9.19578C3.89223 9.19578 3.65125 9.43676 3.65125 9.73403H3.95882C3.95882 9.60663 4.0621 9.50335 4.1895 9.50335V9.19578ZM10.71 9.19578H4.1895V9.50335H10.71V9.19578ZM10.9407 8.9651C10.9407 9.0925 10.8374 9.19578 10.71 9.19578V9.50335C11.0072 9.50335 11.2482 9.26237 11.2482 8.9651H10.9407ZM10.9407 7.28382V8.9651H11.2482V7.28382H10.9407ZM10.71 7.05314C10.8374 7.05314 10.9407 7.15642 10.9407 7.28382H11.2482C11.2482 6.98655 11.0072 6.74557 10.71 6.74557V7.05314ZM4.1895 7.05314H10.71V6.74557H4.1895V7.05314ZM3.65125 6.51489C3.65125 6.81216 3.89223 7.05314 4.1895 7.05314V6.74557C4.0621 6.74557 3.95882 6.64229 3.95882 6.51489H3.65125ZM3.65125 3.83467V6.51489H3.95882V3.83467H3.65125ZM4.1895 3.29643C3.89223 3.29643 3.65125 3.53741 3.65125 3.83467H3.95882C3.95882 3.70727 4.0621 3.604 4.1895 3.604V3.29643ZM10.71 3.29643H4.1895V3.604H10.71V3.29643ZM55.9126 14.4551C56.9852 15.1113 58.2192 15.4373 59.6099 15.4373V15.1298C58.2693 15.1298 57.092 14.8161 56.0731 14.1927L55.9126 14.4551ZM53.4212 11.8128C54.0124 12.9196 54.8435 13.801 55.9126 14.4551L56.0731 14.1927C55.0508 13.5673 54.2579 12.7264 53.6925 11.6679L53.4212 11.8128ZM52.5542 8.14177C52.5542 9.46897 52.8424 10.6929 53.4203 11.8109L53.6935 11.6697C53.1395 10.5979 52.8618 9.42276 52.8618 8.14177H52.5542ZM53.4206 4.49042C52.8424 5.59653 52.5542 6.81458 52.5542 8.14177H52.8618C52.8618 6.86076 53.1395 5.69208 53.6932 4.6329L53.4206 4.49042ZM55.8941 1.82843C54.8243 2.48293 53.999 3.37128 53.4203 4.49105L53.6935 4.63227C54.2466 3.56214 55.033 2.7158 56.0546 2.0908L55.8941 1.82843ZM59.5729 0.846215C58.1944 0.846215 56.9665 1.1724 55.8941 1.82843L56.0546 2.0908C57.0737 1.46734 58.2449 1.15378 59.5729 1.15378V0.846215ZM62.3109 1.41292C61.454 1.0349 60.5409 0.846215 59.5729 0.846215V1.15378C60.4997 1.15378 61.3704 1.33418 62.1867 1.69433L62.3109 1.41292ZM64.3311 2.72083C63.7377 2.16552 63.0632 1.72908 62.3084 1.41185L62.1892 1.6954C62.9107 1.99862 63.5543 2.41518 64.1209 2.9454L64.3311 2.72083ZM64.3544 3.45475C64.5431 3.24661 64.5438 2.91992 64.3311 2.72083L64.1209 2.9454C64.2035 3.02266 64.2095 3.15668 64.1266 3.24818L64.3544 3.45475ZM63.1349 4.80002L64.3544 3.45475L64.1266 3.24818L62.907 4.59345L63.1349 4.80002ZM62.2756 4.77774C62.4941 5.0188 62.8967 5.06276 63.1349 4.80002L62.907 4.59345C62.8101 4.70031 62.62 4.69973 62.5034 4.57117L62.2756 4.77774ZM61.2734 4.0152C61.6681 4.22113 62.0016 4.47551 62.2756 4.77774L62.5035 4.57118C62.2032 4.23993 61.84 3.9639 61.4157 3.74251L61.2734 4.0152ZM59.5545 3.58974C60.1567 3.58974 60.729 3.73118 61.2734 4.0152L61.4157 3.74251C60.8282 3.43599 60.2072 3.28217 59.5545 3.28217V3.58974ZM57.5221 4.2251C58.1096 3.80212 58.7852 3.58974 59.5545 3.58974V3.28217C58.7245 3.28217 57.9852 3.51268 57.3424 3.9755L57.5221 4.2251ZM56.1511 5.89899C56.4727 5.19639 56.9292 4.64019 57.5205 4.22629L57.3441 3.97432C56.7051 4.42161 56.2143 5.02188 55.8715 5.771L56.1511 5.89899ZM55.6668 8.14177C55.6668 7.33882 55.8284 6.59217 56.1507 5.8999L55.8719 5.77009C55.5298 6.50494 55.3592 7.29614 55.3592 8.14177H55.6668ZM56.1511 10.4215C55.8286 9.71664 55.6668 8.95736 55.6668 8.14177H55.3592C55.3592 8.99936 55.5297 9.80253 55.8715 10.5494L56.1511 10.4215ZM57.5389 12.0757C56.9465 11.661 56.4835 11.1098 56.1498 10.4186L55.8728 10.5523C56.2281 11.2882 56.7246 11.8812 57.3625 12.3277L57.5389 12.0757ZM59.5914 12.6938C58.8083 12.6938 58.1261 12.4867 57.5389 12.0757L57.3625 12.3277C58.0056 12.7779 58.7506 13.0014 59.5914 13.0014V12.6938ZM61.2679 12.2898C60.8032 12.557 60.2463 12.6938 59.5914 12.6938V13.0014C60.2898 13.0014 60.9017 12.8552 61.4212 12.5565L61.2679 12.2898ZM62.1674 11.5765C61.9176 11.8468 61.6179 12.085 61.2669 12.2904L61.4222 12.5559C61.797 12.3365 62.1211 12.0798 62.3933 11.7852L62.1674 11.5765ZM62.9905 11.5356C62.7509 11.3029 62.3771 11.3495 62.1674 11.5765L62.3933 11.7852C62.503 11.6665 62.6781 11.661 62.7762 11.7562L62.9905 11.5356ZM64.3141 12.821L62.9905 11.5356L62.7762 11.7562L64.0998 13.0416L64.3141 12.821ZM64.3153 13.5796C64.5361 13.3707 64.5254 13.0262 64.3141 12.821L64.0998 13.0416C64.1924 13.1316 64.1908 13.274 64.1039 13.3562L64.3153 13.5796ZM62.3676 14.9069C63.0656 14.5906 63.7148 14.1476 64.3153 13.5796L64.1039 13.3562C63.5262 13.9027 62.9051 14.3257 62.2407 14.6267L62.3676 14.9069ZM59.608 15.4373C60.6356 15.4498 61.5566 15.2744 62.3676 14.9069L62.2407 14.6267C61.477 14.9728 60.6018 15.1418 59.6117 15.1298L59.608 15.4373ZM14.4198 1.30142C14.5472 1.30142 14.6505 1.4047 14.6505 1.5321H14.958C14.958 1.23483 14.7171 0.993849 14.4198 0.993849V1.30142ZM12.3837 1.30142H14.4198V0.993849H12.3837V1.30142ZM12.153 1.5321C12.153 1.4047 12.2563 1.30142 12.3837 1.30142V0.993849C12.0864 0.993849 11.8454 1.23483 11.8454 1.5321H12.153ZM12.153 14.7514V1.5321H11.8454V14.7514H12.153ZM12.3837 14.9821C12.2563 14.9821 12.153 14.8788 12.153 14.7514H11.8454C11.8454 15.0487 12.0864 15.2897 12.3837 15.2897V14.9821ZM14.4198 14.9821H12.3837V15.2897H14.4198V14.9821ZM14.6505 14.7514C14.6505 14.8788 14.5472 14.9821 14.4198 14.9821V15.2897C14.7171 15.2897 14.958 15.0487 14.958 14.7514H14.6505ZM14.6505 1.5321V14.7514H14.958V1.5321H14.6505ZM26.4881 3.16221C26.4881 3.28961 26.3848 3.39289 26.2574 3.39289V3.70046C26.5547 3.70046 26.7957 3.45948 26.7957 3.16221H26.4881ZM26.4881 1.5321V3.16221H26.7957V1.5321H26.4881ZM26.2574 1.30142C26.3848 1.30142 26.4881 1.4047 26.4881 1.5321H26.7957C26.7957 1.23483 26.5547 0.993849 26.2574 0.993849V1.30142ZM16.4706 1.30142H26.2574V0.993849H16.4706V1.30142ZM16.2399 1.5321C16.2399 1.4047 16.3432 1.30142 16.4706 1.30142V0.993849C16.1733 0.993849 15.9323 1.23483 15.9323 1.5321H16.2399ZM16.2399 3.16222V1.5321H15.9323V3.16222H16.2399ZM16.4706 3.39289C16.3432 3.39289 16.2399 3.28961 16.2399 3.16222H15.9323C15.9323 3.45948 16.1733 3.70046 16.4706 3.70046V3.39289ZM19.6139 3.39289H16.4706V3.70046H19.6139V3.39289ZM20.1522 3.93114C20.1522 3.63387 19.9112 3.39289 19.6139 3.39289V3.70046C19.7413 3.70046 19.8446 3.80374 19.8446 3.93114H20.1522ZM20.1522 14.7514V3.93114H19.8446V14.7514H20.1522ZM20.3829 14.9821C20.2554 14.9821 20.1522 14.8788 20.1522 14.7514H19.8446C19.8446 15.0487 20.0856 15.2897 20.3829 15.2897V14.9821ZM22.419 14.9821H20.3829V15.2897H22.419V14.9821ZM22.6496 14.7514C22.6496 14.8788 22.5464 14.9821 22.419 14.9821V15.2897C22.7162 15.2897 22.9572 15.0487 22.9572 14.7514H22.6496ZM22.6496 3.93114V14.7514H22.9572V3.93114H22.6496ZM23.1879 3.39289C22.8906 3.39289 22.6496 3.63387 22.6496 3.93114H22.9572C22.9572 3.80374 23.0605 3.70046 23.1879 3.70046V3.39289ZM26.2574 3.39289H23.1879V3.70046H26.2574V3.39289ZM28.1082 0.993849C27.811 0.993849 27.57 1.23483 27.57 1.5321H27.8776C27.8776 1.4047 27.9808 1.30142 28.1082 1.30142V0.993849ZM33.8506 0.993849H28.1082V1.30142H33.8506V0.993849ZM35.7959 1.57085C35.1827 1.18757 34.5334 0.993849 33.8506 0.993849V1.30142C34.4718 1.30142 35.0651 1.47678 35.6329 1.83167L35.7959 1.57085ZM37.267 3.04271C36.8974 2.43084 36.4058 1.9393 35.794 1.56963L35.6349 1.83289C36.2041 2.17678 36.6599 2.63255 37.0038 3.20176L37.267 3.04271ZM37.8428 4.94919C37.8428 4.27799 37.6487 3.64057 37.265 3.03949L37.0058 3.20497C37.3603 3.76035 37.5352 4.34091 37.5352 4.94919H37.8428ZM36.8721 7.45209C37.5176 6.73133 37.8428 5.89497 37.8428 4.94919H37.5352C37.5352 5.81707 37.2395 6.58091 36.643 7.24689L36.8721 7.45209ZM36.8904 7.68287C36.8215 7.63553 36.805 7.52701 36.8721 7.45209L36.643 7.24689C36.4637 7.44714 36.4806 7.77439 36.7161 7.93632L36.8904 7.68287ZM38.1945 9.14107C37.8754 8.5284 37.4396 8.04044 36.8871 7.68072L36.7193 7.93846C37.2249 8.2677 37.6257 8.71476 37.9217 9.28315L38.1945 9.14107ZM38.6917 11.0391C38.6917 10.3724 38.5247 9.73791 38.1927 9.13767L37.9235 9.28655C38.2312 9.84278 38.3841 10.4262 38.3841 11.0391H38.6917ZM38.156 13.0877C38.5124 12.4385 38.6917 11.7549 38.6917 11.0391H38.3841C38.3841 11.7011 38.2189 12.334 37.8864 12.9397L38.156 13.0877ZM36.704 14.6733C37.3153 14.2658 37.7997 13.7366 38.156 13.0877L37.8864 12.9397C37.5537 13.5456 37.1031 14.0376 36.5334 14.4174L36.704 14.6733ZM34.6995 15.2897C35.4197 15.2897 36.089 15.0833 36.704 14.6733L36.5334 14.4174C35.9673 14.7948 35.3571 14.9821 34.6995 14.9821V15.2897ZM28.1082 15.2897H34.6995V14.9821H28.1082V15.2897ZM27.57 14.7514C27.57 15.0487 27.811 15.2897 28.1082 15.2897V14.9821C27.9808 14.9821 27.8776 14.8788 27.8776 14.7514H27.57ZM27.57 1.5321V14.7514H27.8776V1.5321H27.57ZM35.1239 12.1319C34.8265 12.4408 34.5138 12.5831 34.1827 12.5831V12.8906C34.6145 12.8906 35.0031 12.7008 35.3454 12.3453L35.1239 12.1319ZM35.5791 11.0391C35.5791 11.4656 35.4294 11.8264 35.1259 12.1299L35.3434 12.3473C35.7042 11.9865 35.8867 11.5476 35.8867 11.0391H35.5791ZM35.1568 9.79434C35.4344 10.1053 35.5791 10.5153 35.5791 11.0391H35.8867C35.8867 10.4556 35.7238 9.96755 35.3862 9.5895L35.1568 9.79434ZM34.1827 9.32899C34.5658 9.32899 34.8869 9.47952 35.1548 9.792L35.3883 9.59184C35.0656 9.21536 34.6609 9.02142 34.1827 9.02142V9.32899ZM30.9133 9.32899H34.1827V9.02142H30.9133V9.32899ZM30.6826 9.55967C30.6826 9.43227 30.7859 9.32899 30.9133 9.32899V9.02142C30.616 9.02142 30.375 9.2624 30.375 9.55967H30.6826ZM30.6826 12.3524V9.55967H30.375V12.3524H30.6826ZM30.9133 12.5831C30.7859 12.5831 30.6826 12.4798 30.6826 12.3524H30.375C30.375 12.6497 30.616 12.8906 30.9133 12.8906V12.5831ZM34.1827 12.5831H30.9133V12.8906H34.1827V12.5831ZM34.3628 6.176C34.1031 6.46962 33.8149 6.61179 33.4948 6.62246L33.5051 6.92986C33.9231 6.91592 34.287 6.72591 34.5932 6.37979L34.3628 6.176ZM34.7487 5.22601C34.7487 5.5653 34.6241 5.88063 34.3628 6.176L34.5932 6.37979C34.8978 6.03542 35.0562 5.64949 35.0562 5.22601H34.7487ZM34.4294 4.11954C34.6378 4.39379 34.7487 4.75821 34.7487 5.22601H35.0562C35.0562 4.70959 34.9333 4.27433 34.6743 3.93343L34.4294 4.11954ZM33.4446 3.70046C33.9148 3.70046 34.2306 3.84761 34.4277 4.11722L34.676 3.93575C34.4055 3.56562 33.9832 3.39289 33.4446 3.39289V3.70046ZM30.9133 3.70046H33.4446V3.39289H30.9133V3.70046ZM30.6826 3.93114C30.6826 3.80374 30.7859 3.70046 30.9133 3.70046V3.39289C30.616 3.39289 30.375 3.63387 30.375 3.93114H30.6826ZM30.6826 6.3917V3.93114H30.375V6.3917H30.6826ZM30.9133 6.62237C30.7859 6.62237 30.6826 6.5191 30.6826 6.3917H30.375C30.375 6.68896 30.616 6.92994 30.9133 6.92994V6.62237ZM33.4999 6.62237H30.9133V6.92994H33.4999V6.62237ZM53.2476 14.6644C53.3095 14.8161 53.1978 14.9821 53.034 14.9821V15.2897C53.4163 15.2897 53.6767 14.9023 53.5324 14.5483L53.2476 14.6644ZM47.8587 1.44502L53.2476 14.6644L53.5324 14.5483L48.1435 1.32891L47.8587 1.44502ZM47.6451 1.30142C47.7389 1.30142 47.8233 1.35818 47.8587 1.44502L48.1435 1.32891C48.0609 1.1263 47.8639 0.993849 47.6451 0.993849V1.30142ZM44.8565 1.30142H47.6451V0.993849H44.8565V1.30142ZM44.6436 1.44333C44.6794 1.35739 44.7634 1.30142 44.8565 1.30142V0.993849C44.6393 0.993849 44.4433 1.12446 44.3597 1.32498L44.6436 1.44333ZM39.1326 14.6627L44.6436 1.44333L44.3597 1.32498L38.8487 14.5443L39.1326 14.6627ZM39.3456 14.9821C39.1809 14.9821 39.0693 14.8146 39.1326 14.6627L38.8487 14.5443C38.7009 14.8989 38.9614 15.2897 39.3456 15.2897V14.9821ZM41.5572 14.9821H39.3456V15.2897H41.5572V14.9821ZM41.7702 14.84C41.7344 14.926 41.6504 14.9821 41.5572 14.9821V15.2897C41.7746 15.2897 41.9707 15.1589 42.0542 14.9581L41.7702 14.84ZM43.0311 11.8074L41.7702 14.84L42.0542 14.9581L43.3151 11.9255L43.0311 11.8074ZM43.5281 11.4758C43.3106 11.4758 43.1146 11.6067 43.0311 11.8074L43.3151 11.9255C43.3509 11.8395 43.4349 11.7834 43.5281 11.7834V11.4758ZM48.8822 11.4758H43.5281V11.7834H48.8822V11.4758ZM49.3801 11.8097C49.2972 11.6077 49.1005 11.4758 48.8822 11.4758V11.7834C48.9758 11.7834 49.0601 11.8399 49.0956 11.9265L49.3801 11.8097ZM50.6238 14.839L49.3802 11.8097L49.0956 11.9265L50.3393 14.9559L50.6238 14.839ZM50.8372 14.9821C50.7436 14.9821 50.6593 14.9256 50.6238 14.839L50.3393 14.9559C50.4222 15.1578 50.6189 15.2897 50.8372 15.2897V14.9821ZM53.034 14.9821H50.8372V15.2897H53.034V14.9821ZM47.5908 9.38435C47.9728 9.38435 48.2332 8.99746 48.0894 8.64352L47.8045 8.75928C47.8661 8.91097 47.7545 9.07678 47.5908 9.07678V9.38435ZM44.8455 9.38435H47.5908V9.07678H44.8455V9.38435ZM44.3489 8.63853C44.2006 8.99314 44.4611 9.38435 44.8455 9.38435V9.07678C44.6808 9.07678 44.5691 8.90912 44.6326 8.75715L44.3489 8.63853ZM45.741 5.30777L44.3489 8.63853L44.6326 8.75714L46.0248 5.42638L45.741 5.30777ZM46.7363 5.31275C46.5555 4.86762 45.9263 4.86446 45.741 5.30777L46.0248 5.42638C46.1042 5.23639 46.3738 5.23774 46.4513 5.42851L46.7363 5.31275ZM48.0894 8.64352L46.7363 5.31275L46.4513 5.42852L47.8045 8.75928L48.0894 8.64352ZM72.8738 6.86969C72.7049 7.05609 72.6877 7.33456 72.8322 7.54038L73.0839 7.3636C73.022 7.2754 73.0294 7.15605 73.1017 7.07617L72.8738 6.86969ZM77.5849 1.6685L72.8738 6.86969L73.1017 7.07617L77.8128 1.87498L77.5849 1.6685ZM77.4139 1.28296C77.614 1.28296 77.7192 1.52022 77.5849 1.6685L77.8128 1.87498C78.1262 1.529 77.8807 0.975394 77.4139 0.975394V1.28296ZM74.6684 1.28296H77.4139V0.975394H74.6684V1.28296ZM74.4974 1.35891C74.5411 1.31056 74.6032 1.28296 74.6684 1.28296V0.975394C74.5163 0.975394 74.3713 1.03977 74.2692 1.15261L74.4974 1.35891ZM69.1731 7.24615L74.4974 1.35891L74.2692 1.15261L68.945 7.03984L69.1731 7.24615ZM68.2356 6.88511C68.2356 7.37777 68.8427 7.61154 69.1731 7.24615L68.945 7.03984C68.8034 7.19644 68.5432 7.09625 68.5432 6.88511H68.2356ZM68.2356 1.55055V6.88511H68.5432V1.55055H68.2356ZM68.005 1.31987C68.1324 1.31987 68.2356 1.42315 68.2356 1.55055H68.5432C68.5432 1.25329 68.3022 1.0123 68.005 1.0123V1.31987ZM65.9689 1.31987H68.005V1.0123H65.9689V1.31987ZM65.7382 1.55055C65.7382 1.42315 65.8415 1.31987 65.9689 1.31987V1.0123C65.6716 1.0123 65.4306 1.25329 65.4306 1.55055H65.7382ZM65.7382 14.7514V1.55055H65.4306V14.7514H65.7382ZM65.9689 14.9821C65.8415 14.9821 65.7382 14.8788 65.7382 14.7514H65.4306C65.4306 15.0487 65.6716 15.2897 65.9689 15.2897V14.9821ZM68.005 14.9821H65.9689V15.2897H68.005V14.9821ZM68.2356 14.7514C68.2356 14.8788 68.1324 14.9821 68.005 14.9821V15.2897C68.3022 15.2897 68.5432 15.0487 68.5432 14.7514H68.2356ZM68.2356 12.2916V14.7514H68.5432V12.2916H68.2356ZM68.3701 11.9357C68.2835 12.034 68.2356 12.1605 68.2356 12.2916H68.5432C68.5432 12.2354 68.5637 12.1812 68.6009 12.1391L68.3701 11.9357ZM70.4239 9.60598L68.3701 11.9357L68.6009 12.1391L70.6547 9.80937L70.4239 9.60598ZM71.2685 9.65307C71.0686 9.36771 70.6544 9.34462 70.4239 9.60598L70.6547 9.80937C70.7534 9.69736 70.9309 9.70726 71.0166 9.82955L71.2685 9.65307ZM74.9334 14.8838L71.2685 9.65306L71.0166 9.82955L74.6815 15.0603L74.9334 14.8838ZM75.1223 14.9821C75.0471 14.9821 74.9765 14.9454 74.9334 14.8838L74.6815 15.0603C74.7822 15.2041 74.9467 15.2897 75.1223 15.2897V14.9821ZM77.6149 14.9821H75.1223V15.2897H77.6149V14.9821ZM77.8036 14.6189C77.911 14.7717 77.8017 14.9821 77.6149 14.9821V15.2897C78.0507 15.2897 78.3058 14.7988 78.0553 14.4421L77.8036 14.6189ZM72.8322 7.54038L77.8036 14.6189L78.0553 14.4421L73.0839 7.36361L72.8322 7.54038Z" fill="#232323" mask="url(#path-1-outside-1_471_129)"/>
</svg>
