<svg width="99" height="99" viewBox="0 0 99 99" fill="none" xmlns="http://www.w3.org/2000/svg">
<rect x="0.5" y="0.5" width="98" height="98" rx="4.5" stroke="#C2C2C2"/>
<path d="M68.4775 49.1337C69.1442 49.5186 69.1442 50.4809 68.4775 50.8658L50.4775 61.2581C49.8109 61.643 48.9775 61.1619 48.9775 60.3921V39.6075C48.9775 38.8377 49.8109 38.3565 50.4775 38.7414L68.4775 49.1337Z" fill="#30B5FF"/>
<path d="M30 23C30 21.8954 30.8954 21 32 21L67.9775 21C69.0821 21 69.9775 21.8954 69.9775 23V30.9998C69.9775 32.1043 69.0821 32.9998 67.9775 32.9998H44.9775C43.873 32.9998 42.9775 33.8952 42.9775 34.9998V44.9457V58.2857V77C42.9775 78.1046 42.0821 79 40.9775 79H32C30.8954 79 30 78.1046 30 77V23Z" fill="#232323"/>
</svg>
