<svg width="20" height="20" viewBox="0 0 20 20" fill="none" xmlns="http://www.w3.org/2000/svg">
<path d="M5.52632 6.21053C5.52632 3.88512 7.41143 2 9.73684 2C12.0623 2 13.9474 3.88512 13.9474 6.21053C13.9474 8.53594 12.0623 10.4211 9.73684 10.4211C7.41143 10.4211 5.52632 8.53594 5.52632 6.21053ZM9.73684 8.73684C11.1321 8.73684 12.2632 7.60577 12.2632 6.21053C12.2632 4.81528 11.1321 3.68421 9.73684 3.68421C8.3416 3.68421 7.21053 4.81528 7.21053 6.21053C7.21053 7.60577 8.3416 8.73684 9.73684 8.73684Z" fill="#0A0A0A"/>
<path d="M4.97318 13.2363C3.70977 14.4997 3 16.2133 3 18H4.68421C4.68421 16.66 5.21654 15.3748 6.16409 14.4272C7.11164 13.4797 8.3968 12.9474 9.73684 12.9474C11.0769 12.9474 12.362 13.4797 13.3096 14.4272C14.2571 15.3748 14.7895 16.66 14.7895 18H16.4737C16.4737 16.2133 15.7639 14.4997 14.5005 13.2363C13.2371 11.9729 11.5236 11.2632 9.73684 11.2632C7.95012 11.2632 6.23658 11.9729 4.97318 13.2363Z" fill="#0A0A0A"/>
</svg>
