<svg width="80" height="16" viewBox="0 0 80 16" fill="none" xmlns="http://www.w3.org/2000/svg">
<g clip-path="url(#clip0_987_1797)">
<path d="M8.00005 11.5134L10.7667 13.1867C11.2734 13.4934 11.8934 13.04 11.76 12.4667L11.0267 9.32005L13.4734 7.20005C13.92 6.81338 13.68 6.08005 13.0934 6.03338L9.87338 5.76005L8.61338 2.78671C8.38671 2.24671 7.61338 2.24671 7.38671 2.78671L6.12671 5.75338L2.90672 6.02671C2.32005 6.07338 2.08005 6.80671 2.52672 7.19338L4.97338 9.31338L4.24005 12.46C4.10672 13.0334 4.72671 13.4867 5.23338 13.18L8.00005 11.5134V11.5134Z" fill="#D9D9D9"/>
</g>
<g clip-path="url(#clip1_987_1797)">
<path d="M24 11.5134L26.7667 13.1867C27.2734 13.4934 27.8934 13.04 27.76 12.4667L27.0267 9.32005L29.4734 7.20005C29.92 6.81338 29.68 6.08005 29.0934 6.03338L25.8734 5.76005L24.6134 2.78671C24.3867 2.24671 23.6134 2.24671 23.3867 2.78671L22.1267 5.75338L18.9067 6.02671C18.32 6.07338 18.08 6.80671 18.5267 7.19338L20.9734 9.31338L20.24 12.46C20.1067 13.0334 20.7267 13.4867 21.2334 13.18L24 11.5134V11.5134Z" fill="#D9D9D9"/>
</g>
<g clip-path="url(#clip2_987_1797)">
<path d="M40 11.5134L42.7667 13.1867C43.2734 13.4934 43.8934 13.04 43.76 12.4667L43.0267 9.32005L45.4734 7.20005C45.92 6.81338 45.68 6.08005 45.0934 6.03338L41.8734 5.76005L40.6134 2.78671C40.3867 2.24671 39.6134 2.24671 39.3867 2.78671L38.1267 5.75338L34.9067 6.02671C34.32 6.07338 34.08 6.80671 34.5267 7.19338L36.9734 9.31338L36.24 12.46C36.1067 13.0334 36.7267 13.4867 37.2334 13.18L40 11.5134V11.5134Z" fill="#D9D9D9"/>
</g>
<g clip-path="url(#clip3_987_1797)">
<path d="M56 11.5134L58.7667 13.1867C59.2734 13.4934 59.8934 13.04 59.76 12.4667L59.0267 9.32005L61.4734 7.20005C61.92 6.81338 61.68 6.08005 61.0934 6.03338L57.8734 5.76005L56.6134 2.78671C56.3867 2.24671 55.6134 2.24671 55.3867 2.78671L54.1267 5.75338L50.9067 6.02671C50.32 6.07338 50.08 6.80671 50.5267 7.19338L52.9734 9.31338L52.24 12.46C52.1067 13.0334 52.7267 13.4867 53.2334 13.18L56 11.5134V11.5134Z" fill="#D9D9D9"/>
</g>
<g clip-path="url(#clip4_987_1797)">
<path d="M72 11.5134L74.7667 13.1867C75.2734 13.4934 75.8934 13.04 75.76 12.4667L75.0267 9.32005L77.4734 7.20005C77.92 6.81338 77.68 6.08005 77.0934 6.03338L73.8734 5.76005L72.6134 2.78671C72.3867 2.24671 71.6134 2.24671 71.3867 2.78671L70.1267 5.75338L66.9067 6.02671C66.32 6.07338 66.08 6.80671 66.5267 7.19338L68.9734 9.31338L68.24 12.46C68.1067 13.0334 68.7267 13.4867 69.2334 13.18L72 11.5134V11.5134Z" fill="#D9D9D9"/>
</g>
<defs>
<clipPath id="clip0_987_1797">
<rect width="16" height="16" fill="white"/>
</clipPath>
<clipPath id="clip1_987_1797">
<rect width="16" height="16" fill="white" transform="translate(16)"/>
</clipPath>
<clipPath id="clip2_987_1797">
<rect width="16" height="16" fill="white" transform="translate(32)"/>
</clipPath>
<clipPath id="clip3_987_1797">
<rect width="16" height="16" fill="white" transform="translate(48)"/>
</clipPath>
<clipPath id="clip4_987_1797">
<rect width="16" height="16" fill="white" transform="translate(64)"/>
</clipPath>
</defs>
</svg>
